<?xml version="1.0" encoding="UTF-8" standalone="no"?>
<svg width="105.833mm" height="105.833mm"
 viewBox="0 0 300 300"
 xmlns="http://www.w3.org/2000/svg" xmlns:xlink="http://www.w3.org/1999/xlink"  version="1.2" baseProfile="tiny">
<title>Qt Svg Document</title>
<desc>Generated with Qt</desc>
<defs>
</defs>
<g fill="none" stroke="black" stroke-width="1" fill-rule="evenodd" stroke-linecap="square" stroke-linejoin="bevel" >

<g fill="#ffffff" fill-opacity="1" stroke="none" transform="matrix(1,0,0,1,0,0)"
font-family="Noto Sans" font-size="9" font-weight="400" font-style="normal" 
>
<path vector-effect="non-scaling-stroke" fill-rule="evenodd" d="M0,0 L300,0 L300,300 L0,300 L0,0"/>
</g>

<g fill="none" stroke="#000000" stroke-opacity="1" stroke-width="1" stroke-linecap="round" stroke-linejoin="round" transform="matrix(1,0,0,1,0,0)"
font-family="Noto Sans" font-size="9" font-weight="400" font-style="normal" 
>
<polyline fill="none" vector-effect="non-scaling-stroke" points="203,300 203,298 202,296 202,294 201,292 201,290 201,288 200,286 200,284 199,282 199,280 198,278 198,276 197,274 197,272 196,270 196,268 195,266 195,265 194,263 194,261 193,259 193,257 192,255 192,253 191,251 191,249 190,247 190,245 189,243 189,241 188,239 188,237 187,236 187,234 186,232 186,230 185,228 184,226 184,224 183,222 183,220 182,218 182,216 181,214 181,212 180,211 179,209 179,207 178,205 178,203 177,201 177,199 176,197 175,195 175,193 174,191 174,190 173,188 172,186 172,184 171,182 171,180 170,178 169,176 169,174 168,172 167,170 167,169 166,167 166,165 165,163 164,161 164,159 163,157 162,155 162,153 161,152 160,150 160,148 159,146 158,144 158,142 157,140 156,138 156,136 155,135 154,133 154,131 153,129 152,127 152,125 151,123 150,121 150,120 149,118 148,116 148,114 147,112 146,110 145,108 145,106 144,105 143,103 142,101 142,99 141,97 140,95 140,93 139,92 138,90 137,88 137,86 136,84 135,82 134,80 134,79 133,77 132,75 131,73 131,71 130,69 129,67 128,66 127,64 127,62 126,60 125,58 124,56 124,55 123,53 122,51 121,49 120,47 120,45 119,44 118,42 117,40 116,38 116,36 115,34 114,33 113,31 112,29 111,27 111,25 110,24 109,22 108,20 107,18 106,16 106,14 105,13 104,11 103,9 102,7 101,5 100,4 100,2 99,0 " />
</g>
</g>
</svg>
