<?xml version="1.0" encoding="UTF-8" standalone="no"?>
<svg width="112.889mm" height="69.85mm"
 viewBox="0 0 320 198"
 xmlns="http://www.w3.org/2000/svg" xmlns:xlink="http://www.w3.org/1999/xlink"  version="1.2" baseProfile="tiny">
<title>Qt Svg Document</title>
<desc>Generated with Qt</desc>
<defs>
</defs>
<g fill="none" stroke="black" stroke-width="1" fill-rule="evenodd" stroke-linecap="square" stroke-linejoin="bevel" >

<g fill="#ffffff" fill-opacity="1" stroke="none" transform="matrix(1,0,0,1,0,0)"
font-family="Noto Sans" font-size="9" font-weight="400" font-style="normal" 
>
<path vector-effect="non-scaling-stroke" fill-rule="evenodd" d="M0,0 L320,0 L320,198 L0,198 L0,0"/>
</g>

<g fill="none" stroke="#000000" stroke-opacity="1" stroke-width="1" stroke-linecap="round" stroke-linejoin="round" transform="matrix(1,0,0,1,0,0)"
font-family="Noto Sans" font-size="9" font-weight="400" font-style="normal" 
>
<polyline fill="none" vector-effect="non-scaling-stroke" points="149,194 150,192 150,190 151,188 152,187 153,185 154,183 155,181 155,179 156,177 157,176 158,174 158,172 159,170 160,168 160,166 161,164 162,162 162,161 163,159 163,157 164,155 164,153 165,151 165,149 166,147 166,145 167,143 167,141 168,139 168,137 168,135 169,133 169,131 169,129 170,127 170,125 170,123 170,121 171,119 171,117 171,115 171,113 171,111 171,109 171,107 172,105 172,103 172,101 172,99 172,97 172,95 172,93 172,91 171,89 171,87 171,85 171,83 171,81 171,79 171,78 170,76 170,74 170,72 170,70 169,68 169,66 169,64 168,62 168,60 168,58 167,56 167,54 166,52 166,50 165,48 165,46 164,44 164,42 163,40 163,38 162,36 162,35 161,33 160,31 160,29 159,27 158,25 158,23 157,21 156,19 155,18 155,16 154,14 153,12 152,10 151,9 150,7 150,6 " />
</g>
</g>
</svg>
