  0
SECTION
  2
HEADER
  9
$ACADVER
  1
AC1009
  9
$EXTMIN
 10
0.0
 20
0.0
 30
0.0
  9
$EXTMAX
 10
1000.0
 20
1000.0
 30
0.0
  9
$FILLMODE
 70
 0
  9
$SPLFRAME
 70
 1
  0
ENDSEC
  0
SECTION
  2
TABLES
  0
TABLE
  2
LAYER
 70
1
  0
LAYER
  2
0
 70
     0
 62
     7
  6
CONTINUOUS
  0
ENDTAB
  0
ENDSEC
  0
SECTION
  2
ENTITIES
  0
LINE
  8
0
 62
     230
 10
145.626
 20
193.537
 30
0.0
 11
209.851
 21
258.244
 31
0.0
  0
LINE
  8
0
 62
     230
 10
209.851
 20
258.244
 30
0.0
 11
210.946
 21
217.104
 31
0.0
  0
LINE
  8
0
 62
     230
 10
210.946
 20
217.104
 30
0.0
 11
146.41
 21
152.575
 31
0.0
  0
LINE
  8
0
 62
     230
 10
146.41
 20
152.575
 30
0.0
 11
145.626
 21
193.537
 31
0.0
  0
LINE
  8
0
 62
     6
 10
21.2755
 20
148.233
 30
0.0
 11
86.5861
 21
213.543
 31
0.0
  0
LINE
  8
0
 62
     6
 10
86.5861
 20
213.543
 30
0.0
 11
206.914
 21
93.2159
 31
0.0
  0
LINE
  8
0
 62
     6
 10
206.914
 20
93.2159
 30
0.0
 11
141.603
 21
27.9053
 31
0.0
  0
LINE
  8
0
 62
     6
 10
141.603
 20
27.9053
 30
0.0
 11
21.2755
 21
148.233
 31
0.0
  0
LINE
  8
0
 62
     224
 10
86.0266
 20
213.526
 30
0.0
 11
85.1641
 21
254.542
 31
0.0
  0
LINE
  8
0
 62
     224
 10
85.1641
 20
254.542
 30
0.0
 11
146.211
 21
193.494
 31
0.0
  0
LINE
  8
0
 62
     224
 10
146.211
 20
193.494
 30
0.0
 11
147.002
 21
152.55
 31
0.0
  0
LINE
  8
0
 62
     224
 10
147.002
 20
152.55
 30
0.0
 11
86.0266
 21
213.526
 31
0.0
  0
LINE
  8
0
 62
     6
 10
144.104
 20
150.238
 30
0.0
 11
211.02
 21
217.153
 31
0.0
  0
LINE
  8
0
 62
     6
 10
211.02
 20
217.153
 30
0.0
 11
270.936
 21
157.238
 31
0.0
  0
LINE
  8
0
 62
     6
 10
270.936
 20
157.238
 30
0.0
 11
204.02
 21
90.322
 31
0.0
  0
LINE
  8
0
 62
     6
 10
204.02
 20
90.322
 30
0.0
 11
144.104
 21
150.238
 31
0.0
  0
LINE
  8
0
 62
     230
 10
21.1377
 20
190.007
 30
0.0
 11
85.0717
 21
253.933
 31
0.0
  0
LINE
  8
0
 62
     230
 10
85.0717
 20
253.933
 30
0.0
 11
86.4581
 21
213.572
 31
0.0
  0
LINE
  8
0
 62
     230
 10
86.4581
 20
213.572
 30
0.0
 11
21.9218
 21
149.043
 31
0.0
  0
LINE
  8
0
 62
     230
 10
21.9218
 20
149.043
 30
0.0
 11
21.1377
 21
190.007
 31
0.0
  0
LINE
  8
0
 62
     224
 10
210.472
 20
217.471
 30
0.0
 11
209.851
 21
258.244
 31
0.0
  0
LINE
  8
0
 62
     224
 10
209.851
 20
258.244
 30
0.0
 11
270.191
 21
197.904
 31
0.0
  0
LINE
  8
0
 62
     224
 10
270.191
 20
197.904
 30
0.0
 11
270.743
 21
157.201
 31
0.0
  0
LINE
  8
0
 62
     224
 10
270.743
 20
157.201
 30
0.0
 11
210.472
 21
217.471
 31
0.0
  0
LINE
  8
0
 62
     250
 10
2.04777
 20
-0
 30
0.0
 11
1.15066
 21
0.122645
 31
0.0
  0
LINE
  8
0
 62
     250
 10
1.15066
 20
0.122645
 30
0.0
 11
0.511253
 21
0.487825
 31
0.0
  0
LINE
  8
0
 62
     250
 10
0.511253
 20
0.487825
 30
0.0
 11
0.12678
 21
1.09692
 31
0.0
  0
LINE
  8
0
 62
     250
 10
0.12678
 20
1.09692
 30
0.0
 11
0
 21
1.94855
 31
0.0
  0
LINE
  8
0
 62
     250
 10
0
 20
1.94855
 30
0.0
 11
0
 21
36.4628
 31
0.0
  0
LINE
  8
0
 62
     250
 10
0
 20
36.4628
 30
0.0
 11
0.12678
 21
37.3158
 31
0.0
  0
LINE
  8
0
 62
     250
 10
0.12678
 20
37.3158
 30
0.0
 11
0.511253
 21
37.925
 31
0.0
  0
LINE
  8
0
 62
     250
 10
0.511253
 20
37.925
 30
0.0
 11
1.15066
 21
38.2901
 31
0.0
  0
LINE
  8
0
 62
     250
 10
1.15066
 20
38.2901
 30
0.0
 11
2.04777
 21
38.4115
 31
0.0
  0
LINE
  8
0
 62
     250
 10
2.04777
 20
38.4115
 30
0.0
 11
2.94349
 21
38.2901
 31
0.0
  0
LINE
  8
0
 62
     250
 10
2.94349
 20
38.2901
 30
0.0
 11
3.58292
 21
37.925
 31
0.0
  0
LINE
  8
0
 62
     250
 10
3.58292
 20
37.925
 30
0.0
 11
3.96737
 21
37.3158
 31
0.0
  0
LINE
  8
0
 62
     250
 10
3.96737
 20
37.3158
 30
0.0
 11
4.09554
 21
36.4628
 31
0.0
  0
LINE
  8
0
 62
     250
 10
4.09554
 20
36.4628
 30
0.0
 11
4.09554
 21
1.94855
 31
0.0
  0
LINE
  8
0
 62
     250
 10
4.09554
 20
1.94855
 30
0.0
 11
3.96737
 21
1.09692
 31
0.0
  0
LINE
  8
0
 62
     250
 10
3.96737
 20
1.09692
 30
0.0
 11
3.58292
 21
0.487825
 31
0.0
  0
LINE
  8
0
 62
     250
 10
3.58292
 20
0.487825
 30
0.0
 11
2.94349
 21
0.122645
 31
0.0
  0
LINE
  8
0
 62
     250
 10
2.94349
 20
0.122645
 30
0.0
 11
2.04777
 21
-0
 31
0.0
  0
LINE
  8
0
 62
     250
 10
35.8013
 20
10.7349
 30
0.0
 11
17.3729
 21
10.7349
 31
0.0
  0
LINE
  8
0
 62
     250
 10
17.3729
 20
10.7349
 30
0.0
 11
15.8943
 21
10.4786
 31
0.0
  0
LINE
  8
0
 62
     250
 10
15.8943
 20
10.4786
 30
0.0
 11
14.6306
 21
9.70964
 31
0.0
  0
LINE
  8
0
 62
     250
 10
14.6306
 20
9.70964
 30
0.0
 11
13.7638
 21
8.57966
 31
0.0
  0
LINE
  8
0
 62
     250
 10
13.7638
 20
8.57966
 30
0.0
 11
13.4758
 21
7.23332
 31
0.0
  0
LINE
  8
0
 62
     250
 10
13.4758
 20
7.23332
 30
0.0
 11
13.7638
 21
5.89661
 31
0.0
  0
LINE
  8
0
 62
     250
 10
13.7638
 20
5.89661
 30
0.0
 11
14.6306
 21
4.78868
 31
0.0
  0
LINE
  8
0
 62
     250
 10
14.6306
 20
4.78868
 30
0.0
 11
15.8943
 21
4.04594
 31
0.0
  0
LINE
  8
0
 62
     250
 10
15.8943
 20
4.04594
 30
0.0
 11
17.3729
 21
3.79786
 31
0.0
  0
LINE
  8
0
 62
     250
 10
17.3729
 20
3.79786
 30
0.0
 11
31.9043
 21
3.79786
 31
0.0
  0
LINE
  8
0
 62
     250
 10
31.9043
 20
3.79786
 30
0.0
 11
33.3816
 21
4.04594
 31
0.0
  0
LINE
  8
0
 62
     250
 10
33.3816
 20
4.04594
 30
0.0
 11
34.6466
 21
4.78868
 31
0.0
  0
LINE
  8
0
 62
     250
 10
34.6466
 20
4.78868
 30
0.0
 11
35.512
 21
5.89661
 31
0.0
  0
LINE
  8
0
 62
     250
 10
35.512
 20
5.89661
 30
0.0
 11
35.8013
 21
7.23332
 31
0.0
  0
LINE
  8
0
 62
     250
 10
35.8013
 20
7.23332
 30
0.0
 11
35.8013
 21
10.7349
 31
0.0
  0
LINE
  8
0
 62
     250
 10
35.9999
 20
1.02388
 30
0.0
 11
34.0513
 21
0.256315
 31
0.0
  0
LINE
  8
0
 62
     250
 10
34.0513
 20
0.256315
 30
0.0
 11
31.9043
 21
-0
 31
0.0
  0
LINE
  8
0
 62
     250
 10
31.9043
 20
-0
 30
0.0
 11
17.3729
 21
-0
 31
0.0
  0
LINE
  8
0
 62
     250
 10
17.3729
 20
-0
 30
0.0
 11
15.7937
 21
0.132292
 31
0.0
  0
LINE
  8
0
 62
     250
 10
15.7937
 20
0.132292
 30
0.0
 11
14.3288
 21
0.529167
 31
0.0
  0
LINE
  8
0
 62
     250
 10
14.3288
 20
0.529167
 30
0.0
 11
12.9784
 21
1.18925
 31
0.0
  0
LINE
  8
0
 62
     250
 10
12.9784
 20
1.18925
 30
0.0
 11
11.7409
 21
2.11391
 31
0.0
  0
LINE
  8
0
 62
     250
 10
11.7409
 20
2.11391
 30
0.0
 11
10.7074
 21
3.22737
 31
0.0
  0
LINE
  8
0
 62
     250
 10
10.7074
 20
3.22737
 30
0.0
 11
9.9701
 21
4.45107
 31
0.0
  0
LINE
  8
0
 62
     250
 10
9.9701
 20
4.45107
 30
0.0
 11
9.52775
 21
5.78637
 31
0.0
  0
LINE
  8
0
 62
     250
 10
9.52775
 20
5.78637
 30
0.0
 11
9.38029
 21
7.23332
 31
0.0
  0
LINE
  8
0
 62
     250
 10
9.38029
 20
7.23332
 30
0.0
 11
9.52638
 21
8.69541
 31
0.0
  0
LINE
  8
0
 62
     250
 10
9.52638
 20
8.69541
 30
0.0
 11
9.96597
 21
10.0417
 31
0.0
  0
LINE
  8
0
 62
     250
 10
9.96597
 20
10.0417
 30
0.0
 11
10.6977
 21
11.271
 31
0.0
  0
LINE
  8
0
 62
     250
 10
10.6977
 20
11.271
 30
0.0
 11
11.7244
 21
12.3858
 31
0.0
  0
LINE
  8
0
 62
     250
 10
11.7244
 20
12.3858
 30
0.0
 11
14.3082
 21
13.9719
 31
0.0
  0
LINE
  8
0
 62
     250
 10
14.3082
 20
13.9719
 30
0.0
 11
17.3729
 21
14.4997
 31
0.0
  0
LINE
  8
0
 62
     250
 10
17.3729
 20
14.4997
 30
0.0
 11
35.8013
 21
14.4997
 31
0.0
  0
LINE
  8
0
 62
     250
 10
35.8013
 20
14.4997
 30
0.0
 11
35.8013
 21
17.9338
 31
0.0
  0
LINE
  8
0
 62
     250
 10
35.8013
 20
17.9338
 30
0.0
 11
35.512
 21
19.2719
 31
0.0
  0
LINE
  8
0
 62
     250
 10
35.512
 20
19.2719
 30
0.0
 11
34.6466
 21
20.3784
 31
0.0
  0
LINE
  8
0
 62
     250
 10
34.6466
 20
20.3784
 30
0.0
 11
33.3816
 21
21.1226
 31
0.0
  0
LINE
  8
0
 62
     250
 10
33.3816
 20
21.1226
 30
0.0
 11
31.9043
 21
21.3692
 31
0.0
  0
LINE
  8
0
 62
     250
 10
31.9043
 20
21.3692
 30
0.0
 11
17.3729
 21
21.3692
 31
0.0
  0
LINE
  8
0
 62
     250
 10
17.3729
 20
21.3692
 30
0.0
 11
16.4758
 21
21.4891
 31
0.0
  0
LINE
  8
0
 62
     250
 10
16.4758
 20
21.4891
 30
0.0
 11
15.8364
 21
21.8488
 31
0.0
  0
LINE
  8
0
 62
     250
 10
15.8364
 20
21.8488
 30
0.0
 11
15.4519
 21
22.4469
 31
0.0
  0
LINE
  8
0
 62
     250
 10
15.4519
 20
22.4469
 30
0.0
 11
15.3252
 21
23.2847
 31
0.0
  0
LINE
  8
0
 62
     250
 10
15.3252
 20
23.2847
 30
0.0
 11
15.4519
 21
24.1088
 31
0.0
  0
LINE
  8
0
 62
     250
 10
15.4519
 20
24.1088
 30
0.0
 11
15.8364
 21
24.6972
 31
0.0
  0
LINE
  8
0
 62
     250
 10
15.8364
 20
24.6972
 30
0.0
 11
16.4758
 21
25.05
 31
0.0
  0
LINE
  8
0
 62
     250
 10
16.4758
 20
25.05
 30
0.0
 11
17.3729
 21
25.1671
 31
0.0
  0
LINE
  8
0
 62
     250
 10
17.3729
 20
25.1671
 30
0.0
 11
31.9043
 21
25.1671
 31
0.0
  0
LINE
  8
0
 62
     250
 10
31.9043
 20
25.1671
 30
0.0
 11
34.9677
 21
24.6435
 31
0.0
  0
LINE
  8
0
 62
     250
 10
34.9677
 20
24.6435
 30
0.0
 11
37.5528
 21
23.0697
 31
0.0
  0
LINE
  8
0
 62
     250
 10
37.5528
 20
23.0697
 30
0.0
 11
38.578
 21
21.9632
 31
0.0
  0
LINE
  8
0
 62
     250
 10
38.578
 20
21.9632
 30
0.0
 11
39.31
 21
20.7381
 31
0.0
  0
LINE
  8
0
 62
     250
 10
39.31
 20
20.7381
 30
0.0
 11
39.7496
 21
19.3945
 31
0.0
  0
LINE
  8
0
 62
     250
 10
39.7496
 20
19.3945
 30
0.0
 11
39.8971
 21
17.9338
 31
0.0
  0
LINE
  8
0
 62
     250
 10
39.8971
 20
17.9338
 30
0.0
 11
39.8971
 21
1.8824
 31
0.0
  0
LINE
  8
0
 62
     250
 10
39.8971
 20
1.8824
 30
0.0
 11
39.7686
 21
1.05971
 31
0.0
  0
LINE
  8
0
 62
     250
 10
39.7686
 20
1.05971
 30
0.0
 11
39.3845
 21
0.47129
 31
0.0
  0
LINE
  8
0
 62
     250
 10
39.3845
 20
0.47129
 30
0.0
 11
38.7449
 21
0.118511
 31
0.0
  0
LINE
  8
0
 62
     250
 10
38.7449
 20
0.118511
 30
0.0
 11
37.8492
 21
-0
 31
0.0
  0
LINE
  8
0
 62
     250
 10
37.8492
 20
-0
 30
0.0
 11
36.6931
 21
0.256315
 31
0.0
  0
LINE
  8
0
 62
     250
 10
36.6931
 20
0.256315
 30
0.0
 11
35.9999
 21
1.02388
 31
0.0
  0
LINE
  8
0
 62
     250
 10
72.595
 20
17.7353
 30
0.0
 11
72.3057
 21
19.1327
 31
0.0
  0
LINE
  8
0
 62
     250
 10
72.3057
 20
19.1327
 30
0.0
 11
71.4389
 21
20.2792
 31
0.0
  0
LINE
  8
0
 62
     250
 10
71.4389
 20
20.2792
 30
0.0
 11
70.1753
 21
21.0482
 31
0.0
  0
LINE
  8
0
 62
     250
 10
70.1753
 20
21.0482
 30
0.0
 11
68.6978
 21
21.3031
 31
0.0
  0
LINE
  8
0
 62
     250
 10
68.6978
 20
21.3031
 30
0.0
 11
54.1651
 21
21.3031
 31
0.0
  0
LINE
  8
0
 62
     250
 10
54.1651
 20
21.3031
 30
0.0
 11
52.6867
 21
21.0482
 31
0.0
  0
LINE
  8
0
 62
     250
 10
52.6867
 20
21.0482
 30
0.0
 11
51.4244
 21
20.2792
 31
0.0
  0
LINE
  8
0
 62
     250
 10
51.4244
 20
20.2792
 30
0.0
 11
50.5562
 21
19.1327
 31
0.0
  0
LINE
  8
0
 62
     250
 10
50.5562
 20
19.1327
 30
0.0
 11
50.268
 21
17.7353
 31
0.0
  0
LINE
  8
0
 62
     250
 10
50.268
 20
17.7353
 30
0.0
 11
50.268
 21
7.43176
 31
0.0
  0
LINE
  8
0
 62
     250
 10
50.268
 20
7.43176
 30
0.0
 11
50.5562
 21
6.06199
 31
0.0
  0
LINE
  8
0
 62
     250
 10
50.5562
 20
6.06199
 30
0.0
 11
51.4244
 21
4.92097
 31
0.0
  0
LINE
  8
0
 62
     250
 10
51.4244
 20
4.92097
 30
0.0
 11
52.6867
 21
4.15339
 31
0.0
  0
LINE
  8
0
 62
     250
 10
52.6867
 20
4.15339
 30
0.0
 11
54.1651
 21
3.8971
 31
0.0
  0
LINE
  8
0
 62
     250
 10
54.1651
 20
3.8971
 30
0.0
 11
68.6978
 21
3.8971
 31
0.0
  0
LINE
  8
0
 62
     250
 10
68.6978
 20
3.8971
 30
0.0
 11
70.1753
 21
4.15339
 31
0.0
  0
LINE
  8
0
 62
     250
 10
70.1753
 20
4.15339
 30
0.0
 11
71.4389
 21
4.92097
 31
0.0
  0
LINE
  8
0
 62
     250
 10
71.4389
 20
4.92097
 30
0.0
 11
72.3057
 21
6.06199
 31
0.0
  0
LINE
  8
0
 62
     250
 10
72.3057
 20
6.06199
 30
0.0
 11
72.595
 21
7.43176
 31
0.0
  0
LINE
  8
0
 62
     250
 10
72.595
 20
7.43176
 30
0.0
 11
72.595
 21
17.7353
 31
0.0
  0
LINE
  8
0
 62
     250
 10
50.0697
 20
1.05695
 30
0.0
 11
49.3765
 21
0.264583
 31
0.0
  0
LINE
  8
0
 62
     250
 10
49.3765
 20
0.264583
 30
0.0
 11
48.2205
 21
-0
 31
0.0
  0
LINE
  8
0
 62
     250
 10
48.2205
 20
-0
 30
0.0
 11
47.3234
 21
0.122645
 31
0.0
  0
LINE
  8
0
 62
     250
 10
47.3234
 20
0.122645
 30
0.0
 11
46.6838
 21
0.487825
 31
0.0
  0
LINE
  8
0
 62
     250
 10
46.6838
 20
0.487825
 30
0.0
 11
46.2993
 21
1.09692
 31
0.0
  0
LINE
  8
0
 62
     250
 10
46.2993
 20
1.09692
 30
0.0
 11
46.1726
 21
1.94855
 31
0.0
  0
LINE
  8
0
 62
     250
 10
46.1726
 20
1.94855
 30
0.0
 11
46.1726
 21
36.4628
 31
0.0
  0
LINE
  8
0
 62
     250
 10
46.1726
 20
36.4628
 30
0.0
 11
46.2993
 21
37.3158
 31
0.0
  0
LINE
  8
0
 62
     250
 10
46.2993
 20
37.3158
 30
0.0
 11
46.6838
 21
37.925
 31
0.0
  0
LINE
  8
0
 62
     250
 10
46.6838
 20
37.925
 30
0.0
 11
47.3234
 21
38.2901
 31
0.0
  0
LINE
  8
0
 62
     250
 10
47.3234
 20
38.2901
 30
0.0
 11
48.2205
 21
38.4115
 31
0.0
  0
LINE
  8
0
 62
     250
 10
48.2205
 20
38.4115
 30
0.0
 11
49.1162
 21
38.2901
 31
0.0
  0
LINE
  8
0
 62
     250
 10
49.1162
 20
38.2901
 30
0.0
 11
49.7554
 21
37.925
 31
0.0
  0
LINE
  8
0
 62
     250
 10
49.7554
 20
37.925
 30
0.0
 11
50.14
 21
37.3158
 31
0.0
  0
LINE
  8
0
 62
     250
 10
50.14
 20
37.3158
 30
0.0
 11
50.268
 21
36.4628
 31
0.0
  0
LINE
  8
0
 62
     250
 10
50.268
 20
36.4628
 30
0.0
 11
50.268
 21
24.2425
 31
0.0
  0
LINE
  8
0
 62
     250
 10
50.268
 20
24.2425
 30
0.0
 11
52.1173
 21
24.937
 31
0.0
  0
LINE
  8
0
 62
     250
 10
52.1173
 20
24.937
 30
0.0
 11
54.1651
 21
25.1671
 31
0.0
  0
LINE
  8
0
 62
     250
 10
54.1651
 20
25.1671
 30
0.0
 11
68.6978
 21
25.1671
 31
0.0
  0
LINE
  8
0
 62
     250
 10
68.6978
 20
25.1671
 30
0.0
 11
71.7614
 21
24.631
 31
0.0
  0
LINE
  8
0
 62
     250
 10
71.7614
 20
24.631
 30
0.0
 11
74.3451
 21
23.0201
 31
0.0
  0
LINE
  8
0
 62
     250
 10
74.3451
 20
23.0201
 30
0.0
 11
75.3703
 21
21.886
 31
0.0
  0
LINE
  8
0
 62
     250
 10
75.3703
 20
21.886
 30
0.0
 11
76.1037
 21
20.6265
 31
0.0
  0
LINE
  8
0
 62
     250
 10
76.1037
 20
20.6265
 30
0.0
 11
76.5433
 21
19.2429
 31
0.0
  0
LINE
  8
0
 62
     250
 10
76.5433
 20
19.2429
 30
0.0
 11
76.6907
 21
17.7353
 31
0.0
  0
LINE
  8
0
 62
     250
 10
76.6907
 20
17.7353
 30
0.0
 11
76.6907
 21
7.43176
 31
0.0
  0
LINE
  8
0
 62
     250
 10
76.6907
 20
7.43176
 30
0.0
 11
76.5433
 21
5.93933
 31
0.0
  0
LINE
  8
0
 62
     250
 10
76.5433
 20
5.93933
 30
0.0
 11
76.1037
 21
4.56269
 31
0.0
  0
LINE
  8
0
 62
     250
 10
76.1037
 20
4.56269
 30
0.0
 11
75.3703
 21
3.30454
 31
0.0
  0
LINE
  8
0
 62
     250
 10
75.3703
 20
3.30454
 30
0.0
 11
74.3451
 21
2.16352
 31
0.0
  0
LINE
  8
0
 62
     250
 10
74.3451
 20
2.16352
 30
0.0
 11
71.7614
 21
0.54157
 31
0.0
  0
LINE
  8
0
 62
     250
 10
71.7614
 20
0.54157
 30
0.0
 11
68.6978
 21
-0
 31
0.0
  0
LINE
  8
0
 62
     250
 10
68.6978
 20
-0
 30
0.0
 11
54.1651
 21
-0
 31
0.0
  0
LINE
  8
0
 62
     250
 10
54.1651
 20
-0
 30
0.0
 11
52.0181
 21
0.264583
 31
0.0
  0
LINE
  8
0
 62
     250
 10
52.0181
 20
0.264583
 30
0.0
 11
50.0697
 21
1.05695
 31
0.0
  0
LINE
  8
0
 62
     250
 10
109.387
 20
17.9338
 30
0.0
 11
109.098
 21
19.2719
 31
0.0
  0
LINE
  8
0
 62
     250
 10
109.098
 20
19.2719
 30
0.0
 11
108.233
 21
20.3784
 31
0.0
  0
LINE
  8
0
 62
     250
 10
108.233
 20
20.3784
 30
0.0
 11
106.968
 21
21.1226
 31
0.0
  0
LINE
  8
0
 62
     250
 10
106.968
 20
21.1226
 30
0.0
 11
105.49
 21
21.3692
 31
0.0
  0
LINE
  8
0
 62
     250
 10
105.49
 20
21.3692
 30
0.0
 11
90.9588
 21
21.3692
 31
0.0
  0
LINE
  8
0
 62
     250
 10
90.9588
 20
21.3692
 30
0.0
 11
89.4803
 21
21.1226
 31
0.0
  0
LINE
  8
0
 62
     250
 10
89.4803
 20
21.1226
 30
0.0
 11
88.2167
 21
20.3784
 31
0.0
  0
LINE
  8
0
 62
     250
 10
88.2167
 20
20.3784
 30
0.0
 11
87.3485
 21
19.2719
 31
0.0
  0
LINE
  8
0
 62
     250
 10
87.3485
 20
19.2719
 30
0.0
 11
87.0603
 21
17.9338
 31
0.0
  0
LINE
  8
0
 62
     250
 10
87.0603
 20
17.9338
 30
0.0
 11
87.0603
 21
7.23332
 31
0.0
  0
LINE
  8
0
 62
     250
 10
87.0603
 20
7.23332
 30
0.0
 11
87.3485
 21
5.89661
 31
0.0
  0
LINE
  8
0
 62
     250
 10
87.3485
 20
5.89661
 30
0.0
 11
88.2167
 21
4.78868
 31
0.0
  0
LINE
  8
0
 62
     250
 10
88.2167
 20
4.78868
 30
0.0
 11
89.4803
 21
4.04594
 31
0.0
  0
LINE
  8
0
 62
     250
 10
89.4803
 20
4.04594
 30
0.0
 11
90.9588
 21
3.79786
 31
0.0
  0
LINE
  8
0
 62
     250
 10
90.9588
 20
3.79786
 30
0.0
 11
105.49
 21
3.79786
 31
0.0
  0
LINE
  8
0
 62
     250
 10
105.49
 20
3.79786
 30
0.0
 11
106.968
 21
4.04594
 31
0.0
  0
LINE
  8
0
 62
     250
 10
106.968
 20
4.04594
 30
0.0
 11
108.233
 21
4.78868
 31
0.0
  0
LINE
  8
0
 62
     250
 10
108.233
 20
4.78868
 30
0.0
 11
109.098
 21
5.89661
 31
0.0
  0
LINE
  8
0
 62
     250
 10
109.098
 20
5.89661
 30
0.0
 11
109.387
 21
7.23332
 31
0.0
  0
LINE
  8
0
 62
     250
 10
109.387
 20
7.23332
 30
0.0
 11
109.387
 21
17.9338
 31
0.0
  0
LINE
  8
0
 62
     250
 10
105.49
 20
-0
 30
0.0
 11
90.9588
 21
-0
 31
0.0
  0
LINE
  8
0
 62
     250
 10
90.9588
 20
-0
 30
0.0
 11
89.3794
 21
0.132292
 31
0.0
  0
LINE
  8
0
 62
     250
 10
89.3794
 20
0.132292
 30
0.0
 11
87.9147
 21
0.529167
 31
0.0
  0
LINE
  8
0
 62
     250
 10
87.9147
 20
0.529167
 30
0.0
 11
86.5643
 21
1.18925
 31
0.0
  0
LINE
  8
0
 62
     250
 10
86.5643
 20
1.18925
 30
0.0
 11
85.3267
 21
2.11391
 31
0.0
  0
LINE
  8
0
 62
     250
 10
85.3267
 20
2.11391
 30
0.0
 11
84.2931
 21
3.22737
 31
0.0
  0
LINE
  8
0
 62
     250
 10
84.2931
 20
3.22737
 30
0.0
 11
83.5561
 21
4.45107
 31
0.0
  0
LINE
  8
0
 62
     250
 10
83.5561
 20
4.45107
 30
0.0
 11
83.1137
 21
5.78637
 31
0.0
  0
LINE
  8
0
 62
     250
 10
83.1137
 20
5.78637
 30
0.0
 11
82.9663
 21
7.23332
 31
0.0
  0
LINE
  8
0
 62
     250
 10
82.9663
 20
7.23332
 30
0.0
 11
82.9663
 21
17.9338
 31
0.0
  0
LINE
  8
0
 62
     250
 10
82.9663
 20
17.9338
 30
0.0
 11
83.1123
 21
19.3945
 31
0.0
  0
LINE
  8
0
 62
     250
 10
83.1123
 20
19.3945
 30
0.0
 11
83.5519
 21
20.7381
 31
0.0
  0
LINE
  8
0
 62
     250
 10
83.5519
 20
20.7381
 30
0.0
 11
84.2836
 21
21.9632
 31
0.0
  0
LINE
  8
0
 62
     250
 10
84.2836
 20
21.9632
 30
0.0
 11
85.3101
 21
23.0697
 31
0.0
  0
LINE
  8
0
 62
     250
 10
85.3101
 20
23.0697
 30
0.0
 11
87.8939
 21
24.6435
 31
0.0
  0
LINE
  8
0
 62
     250
 10
87.8939
 20
24.6435
 30
0.0
 11
90.9588
 21
25.1671
 31
0.0
  0
LINE
  8
0
 62
     250
 10
90.9588
 20
25.1671
 30
0.0
 11
105.49
 21
25.1671
 31
0.0
  0
LINE
  8
0
 62
     250
 10
105.49
 20
25.1671
 30
0.0
 11
108.554
 21
24.6435
 31
0.0
  0
LINE
  8
0
 62
     250
 10
108.554
 20
24.6435
 30
0.0
 11
111.139
 21
23.0697
 31
0.0
  0
LINE
  8
0
 62
     250
 10
111.139
 20
23.0697
 30
0.0
 11
112.164
 21
21.9632
 31
0.0
  0
LINE
  8
0
 62
     250
 10
112.164
 20
21.9632
 30
0.0
 11
112.896
 21
20.7381
 31
0.0
  0
LINE
  8
0
 62
     250
 10
112.896
 20
20.7381
 30
0.0
 11
113.336
 21
19.3945
 31
0.0
  0
LINE
  8
0
 62
     250
 10
113.336
 20
19.3945
 30
0.0
 11
113.483
 21
17.9338
 31
0.0
  0
LINE
  8
0
 62
     250
 10
113.483
 20
17.9338
 30
0.0
 11
113.483
 21
7.23332
 31
0.0
  0
LINE
  8
0
 62
     250
 10
113.483
 20
7.23332
 30
0.0
 11
113.327
 21
5.73126
 31
0.0
  0
LINE
  8
0
 62
     250
 10
113.327
 20
5.73126
 30
0.0
 11
112.863
 21
4.36012
 31
0.0
  0
LINE
  8
0
 62
     250
 10
112.863
 20
4.36012
 30
0.0
 11
112.089
 21
3.12263
 31
0.0
  0
LINE
  8
0
 62
     250
 10
112.089
 20
3.12263
 30
0.0
 11
111.006
 21
2.01469
 31
0.0
  0
LINE
  8
0
 62
     250
 10
111.006
 20
2.01469
 30
0.0
 11
109.781
 21
1.13412
 31
0.0
  0
LINE
  8
0
 62
     250
 10
109.781
 20
1.13412
 30
0.0
 11
108.454
 21
0.504363
 31
0.0
  0
LINE
  8
0
 62
     250
 10
108.454
 20
0.504363
 30
0.0
 11
107.024
 21
0.12678
 31
0.0
  0
LINE
  8
0
 62
     250
 10
107.024
 20
0.12678
 30
0.0
 11
105.49
 21
-0
 31
0.0
  0
LINE
  8
0
 62
     250
 10
123.656
 20
24.1432
 30
0.0
 11
125.604
 21
24.9122
 31
0.0
  0
LINE
  8
0
 62
     250
 10
125.604
 20
24.9122
 30
0.0
 11
127.751
 21
25.1671
 31
0.0
  0
LINE
  8
0
 62
     250
 10
127.751
 20
25.1671
 30
0.0
 11
135.678
 21
25.1671
 31
0.0
  0
LINE
  8
0
 62
     250
 10
135.678
 20
25.1671
 30
0.0
 11
138.997
 21
24.5732
 31
0.0
  0
LINE
  8
0
 62
     250
 10
138.997
 20
24.5732
 30
0.0
 11
141.622
 21
22.79
 31
0.0
  0
LINE
  8
0
 62
     250
 10
141.622
 20
22.79
 30
0.0
 11
144.248
 21
24.5732
 31
0.0
  0
LINE
  8
0
 62
     250
 10
144.248
 20
24.5732
 30
0.0
 11
147.569
 21
25.1671
 31
0.0
  0
LINE
  8
0
 62
     250
 10
147.569
 20
25.1671
 30
0.0
 11
155.528
 21
25.1671
 31
0.0
  0
LINE
  8
0
 62
     250
 10
155.528
 20
25.1671
 30
0.0
 11
157.106
 21
25.0362
 31
0.0
  0
LINE
  8
0
 62
     250
 10
157.106
 20
25.0362
 30
0.0
 11
158.571
 21
24.6393
 31
0.0
  0
LINE
  8
0
 62
     250
 10
158.571
 20
24.6393
 30
0.0
 11
159.921
 21
23.9793
 31
0.0
  0
LINE
  8
0
 62
     250
 10
159.921
 20
23.9793
 30
0.0
 11
161.159
 21
23.0532
 31
0.0
  0
LINE
  8
0
 62
     250
 10
161.159
 20
23.0532
 30
0.0
 11
162.191
 21
21.9411
 31
0.0
  0
LINE
  8
0
 62
     250
 10
162.191
 20
21.9411
 30
0.0
 11
162.93
 21
20.7174
 31
0.0
  0
LINE
  8
0
 62
     250
 10
162.93
 20
20.7174
 30
0.0
 11
163.372
 21
19.3821
 31
0.0
  0
LINE
  8
0
 62
     250
 10
163.372
 20
19.3821
 30
0.0
 11
163.521
 21
17.9338
 31
0.0
  0
LINE
  8
0
 62
     250
 10
163.521
 20
17.9338
 30
0.0
 11
163.521
 21
1.8824
 31
0.0
  0
LINE
  8
0
 62
     250
 10
163.521
 20
1.8824
 30
0.0
 11
163.393
 21
1.05971
 31
0.0
  0
LINE
  8
0
 62
     250
 10
163.393
 20
1.05971
 30
0.0
 11
163.008
 21
0.47129
 31
0.0
  0
LINE
  8
0
 62
     250
 10
163.008
 20
0.47129
 30
0.0
 11
162.369
 21
0.118511
 31
0.0
  0
LINE
  8
0
 62
     250
 10
162.369
 20
0.118511
 30
0.0
 11
161.473
 21
-0
 31
0.0
  0
LINE
  8
0
 62
     250
 10
161.473
 20
-0
 30
0.0
 11
160.576
 21
0.118511
 31
0.0
  0
LINE
  8
0
 62
     250
 10
160.576
 20
0.118511
 30
0.0
 11
159.936
 21
0.47129
 31
0.0
  0
LINE
  8
0
 62
     250
 10
159.936
 20
0.47129
 30
0.0
 11
159.552
 21
1.05971
 31
0.0
  0
LINE
  8
0
 62
     250
 10
159.552
 20
1.05971
 30
0.0
 11
159.425
 21
1.8824
 31
0.0
  0
LINE
  8
0
 62
     250
 10
159.425
 20
1.8824
 30
0.0
 11
159.425
 21
17.9338
 31
0.0
  0
LINE
  8
0
 62
     250
 10
159.425
 20
17.9338
 30
0.0
 11
159.132
 21
19.2512
 31
0.0
  0
LINE
  8
0
 62
     250
 10
159.132
 20
19.2512
 30
0.0
 11
158.253
 21
20.3619
 31
0.0
  0
LINE
  8
0
 62
     250
 10
158.253
 20
20.3619
 30
0.0
 11
156.985
 21
21.1184
 31
0.0
  0
LINE
  8
0
 62
     250
 10
156.985
 20
21.1184
 30
0.0
 11
155.528
 21
21.3692
 31
0.0
  0
LINE
  8
0
 62
     250
 10
155.528
 20
21.3692
 30
0.0
 11
147.569
 21
21.3692
 31
0.0
  0
LINE
  8
0
 62
     250
 10
147.569
 20
21.3692
 30
0.0
 11
146.09
 21
21.1226
 31
0.0
  0
LINE
  8
0
 62
     250
 10
146.09
 20
21.1226
 30
0.0
 11
144.826
 21
20.3784
 31
0.0
  0
LINE
  8
0
 62
     250
 10
144.826
 20
20.3784
 30
0.0
 11
143.959
 21
19.2719
 31
0.0
  0
LINE
  8
0
 62
     250
 10
143.959
 20
19.2719
 30
0.0
 11
143.672
 21
17.9338
 31
0.0
  0
LINE
  8
0
 62
     250
 10
143.672
 20
17.9338
 30
0.0
 11
143.672
 21
1.8824
 31
0.0
  0
LINE
  8
0
 62
     250
 10
143.672
 20
1.8824
 30
0.0
 11
143.544
 21
1.05971
 31
0.0
  0
LINE
  8
0
 62
     250
 10
143.544
 20
1.05971
 30
0.0
 11
143.159
 21
0.47129
 31
0.0
  0
LINE
  8
0
 62
     250
 10
143.159
 20
0.47129
 30
0.0
 11
142.518
 21
0.118511
 31
0.0
  0
LINE
  8
0
 62
     250
 10
142.518
 20
0.118511
 30
0.0
 11
141.622
 21
-0
 31
0.0
  0
LINE
  8
0
 62
     250
 10
141.622
 20
-0
 30
0.0
 11
140.727
 21
0.118511
 31
0.0
  0
LINE
  8
0
 62
     250
 10
140.727
 20
0.118511
 30
0.0
 11
140.087
 21
0.47129
 31
0.0
  0
LINE
  8
0
 62
     250
 10
140.087
 20
0.47129
 30
0.0
 11
139.703
 21
1.05971
 31
0.0
  0
LINE
  8
0
 62
     250
 10
139.703
 20
1.05971
 30
0.0
 11
139.576
 21
1.8824
 31
0.0
  0
LINE
  8
0
 62
     250
 10
139.576
 20
1.8824
 30
0.0
 11
139.576
 21
17.9338
 31
0.0
  0
LINE
  8
0
 62
     250
 10
139.576
 20
17.9338
 30
0.0
 11
139.287
 21
19.2719
 31
0.0
  0
LINE
  8
0
 62
     250
 10
139.287
 20
19.2719
 30
0.0
 11
138.42
 21
20.3784
 31
0.0
  0
LINE
  8
0
 62
     250
 10
138.42
 20
20.3784
 30
0.0
 11
137.155
 21
21.1226
 31
0.0
  0
LINE
  8
0
 62
     250
 10
137.155
 20
21.1226
 30
0.0
 11
135.678
 21
21.3692
 31
0.0
  0
LINE
  8
0
 62
     250
 10
135.678
 20
21.3692
 30
0.0
 11
127.751
 21
21.3692
 31
0.0
  0
LINE
  8
0
 62
     250
 10
127.751
 20
21.3692
 30
0.0
 11
126.273
 21
21.1226
 31
0.0
  0
LINE
  8
0
 62
     250
 10
126.273
 20
21.1226
 30
0.0
 11
125.01
 21
20.3784
 31
0.0
  0
LINE
  8
0
 62
     250
 10
125.01
 20
20.3784
 30
0.0
 11
124.142
 21
19.2719
 31
0.0
  0
LINE
  8
0
 62
     250
 10
124.142
 20
19.2719
 30
0.0
 11
123.854
 21
17.9338
 31
0.0
  0
LINE
  8
0
 62
     250
 10
123.854
 20
17.9338
 30
0.0
 11
123.854
 21
1.8824
 31
0.0
  0
LINE
  8
0
 62
     250
 10
123.854
 20
1.8824
 30
0.0
 11
123.726
 21
1.05971
 31
0.0
  0
LINE
  8
0
 62
     250
 10
123.726
 20
1.05971
 30
0.0
 11
123.341
 21
0.47129
 31
0.0
  0
LINE
  8
0
 62
     250
 10
123.341
 20
0.47129
 30
0.0
 11
122.702
 21
0.118511
 31
0.0
  0
LINE
  8
0
 62
     250
 10
122.702
 20
0.118511
 30
0.0
 11
121.806
 21
-0
 31
0.0
  0
LINE
  8
0
 62
     250
 10
121.806
 20
-0
 30
0.0
 11
120.909
 21
0.118511
 31
0.0
  0
LINE
  8
0
 62
     250
 10
120.909
 20
0.118511
 30
0.0
 11
120.27
 21
0.47129
 31
0.0
  0
LINE
  8
0
 62
     250
 10
120.27
 20
0.47129
 30
0.0
 11
119.885
 21
1.05971
 31
0.0
  0
LINE
  8
0
 62
     250
 10
119.885
 20
1.05971
 30
0.0
 11
119.759
 21
1.8824
 31
0.0
  0
LINE
  8
0
 62
     250
 10
119.759
 20
1.8824
 30
0.0
 11
119.759
 21
23.2847
 31
0.0
  0
LINE
  8
0
 62
     250
 10
119.759
 20
23.2847
 30
0.0
 11
119.885
 21
24.1088
 31
0.0
  0
LINE
  8
0
 62
     250
 10
119.885
 20
24.1088
 30
0.0
 11
120.27
 21
24.6972
 31
0.0
  0
LINE
  8
0
 62
     250
 10
120.27
 20
24.6972
 30
0.0
 11
120.909
 21
25.05
 31
0.0
  0
LINE
  8
0
 62
     250
 10
120.909
 20
25.05
 30
0.0
 11
121.806
 21
25.1671
 31
0.0
  0
LINE
  8
0
 62
     250
 10
121.806
 20
25.1671
 30
0.0
 11
122.962
 21
24.9122
 31
0.0
  0
LINE
  8
0
 62
     250
 10
122.962
 20
24.9122
 30
0.0
 11
123.656
 21
24.1432
 31
0.0
  0
LINE
  8
0
 62
     250
 10
192.32
 20
21.3692
 30
0.0
 11
177.789
 21
21.3692
 31
0.0
  0
LINE
  8
0
 62
     250
 10
177.789
 20
21.3692
 30
0.0
 11
176.31
 21
21.1226
 31
0.0
  0
LINE
  8
0
 62
     250
 10
176.31
 20
21.1226
 30
0.0
 11
175.047
 21
20.3784
 31
0.0
  0
LINE
  8
0
 62
     250
 10
175.047
 20
20.3784
 30
0.0
 11
174.18
 21
19.2719
 31
0.0
  0
LINE
  8
0
 62
     250
 10
174.18
 20
19.2719
 30
0.0
 11
173.892
 21
17.9338
 31
0.0
  0
LINE
  8
0
 62
     250
 10
173.892
 20
17.9338
 30
0.0
 11
173.892
 21
14.4666
 31
0.0
  0
LINE
  8
0
 62
     250
 10
173.892
 20
14.4666
 30
0.0
 11
192.32
 21
14.4666
 31
0.0
  0
LINE
  8
0
 62
     250
 10
192.32
 20
14.4666
 30
0.0
 11
193.798
 21
14.7188
 31
0.0
  0
LINE
  8
0
 62
     250
 10
193.798
 20
14.7188
 30
0.0
 11
195.063
 21
15.474
 31
0.0
  0
LINE
  8
0
 62
     250
 10
195.063
 20
15.474
 30
0.0
 11
195.928
 21
16.593
 31
0.0
  0
LINE
  8
0
 62
     250
 10
195.928
 20
16.593
 30
0.0
 11
196.217
 21
17.9338
 31
0.0
  0
LINE
  8
0
 62
     250
 10
196.217
 20
17.9338
 30
0.0
 11
195.912
 21
19.305
 31
0.0
  0
LINE
  8
0
 62
     250
 10
195.912
 20
19.305
 30
0.0
 11
194.995
 21
20.4446
 31
0.0
  0
LINE
  8
0
 62
     250
 10
194.995
 20
20.4446
 30
0.0
 11
193.765
 21
21.1391
 31
0.0
  0
LINE
  8
0
 62
     250
 10
193.765
 20
21.1391
 30
0.0
 11
192.32
 21
21.3692
 31
0.0
  0
LINE
  8
0
 62
     250
 10
192.32
 20
10.7005
 30
0.0
 11
173.892
 21
10.7005
 31
0.0
  0
LINE
  8
0
 62
     250
 10
173.892
 20
10.7005
 30
0.0
 11
173.892
 21
7.23332
 31
0.0
  0
LINE
  8
0
 62
     250
 10
173.892
 20
7.23332
 30
0.0
 11
174.18
 21
5.89661
 31
0.0
  0
LINE
  8
0
 62
     250
 10
174.18
 20
5.89661
 30
0.0
 11
175.047
 21
4.78868
 31
0.0
  0
LINE
  8
0
 62
     250
 10
175.047
 20
4.78868
 30
0.0
 11
176.31
 21
4.04594
 31
0.0
  0
LINE
  8
0
 62
     250
 10
176.31
 20
4.04594
 30
0.0
 11
177.789
 21
3.79786
 31
0.0
  0
LINE
  8
0
 62
     250
 10
177.789
 20
3.79786
 30
0.0
 11
192.32
 21
3.79786
 31
0.0
  0
LINE
  8
0
 62
     250
 10
192.32
 20
3.79786
 30
0.0
 11
193.216
 21
3.67937
 31
0.0
  0
LINE
  8
0
 62
     250
 10
193.216
 20
3.67937
 30
0.0
 11
193.856
 21
3.3197
 31
0.0
  0
LINE
  8
0
 62
     250
 10
193.856
 20
3.3197
 30
0.0
 11
194.24
 21
2.72162
 31
0.0
  0
LINE
  8
0
 62
     250
 10
194.24
 20
2.72162
 30
0.0
 11
194.368
 21
1.8824
 31
0.0
  0
LINE
  8
0
 62
     250
 10
194.368
 20
1.8824
 30
0.0
 11
194.24
 21
1.05971
 31
0.0
  0
LINE
  8
0
 62
     250
 10
194.24
 20
1.05971
 30
0.0
 11
193.856
 21
0.47129
 31
0.0
  0
LINE
  8
0
 62
     250
 10
193.856
 20
0.47129
 30
0.0
 11
193.216
 21
0.118511
 31
0.0
  0
LINE
  8
0
 62
     250
 10
193.216
 20
0.118511
 30
0.0
 11
192.32
 21
-0
 31
0.0
  0
LINE
  8
0
 62
     250
 10
192.32
 20
-0
 30
0.0
 11
177.789
 21
-0
 31
0.0
  0
LINE
  8
0
 62
     250
 10
177.789
 20
-0
 30
0.0
 11
176.21
 21
0.132292
 31
0.0
  0
LINE
  8
0
 62
     250
 10
176.21
 20
0.132292
 30
0.0
 11
174.745
 21
0.529167
 31
0.0
  0
LINE
  8
0
 62
     250
 10
174.745
 20
0.529167
 30
0.0
 11
173.395
 21
1.18925
 31
0.0
  0
LINE
  8
0
 62
     250
 10
173.395
 20
1.18925
 30
0.0
 11
172.157
 21
2.11391
 31
0.0
  0
LINE
  8
0
 62
     250
 10
172.157
 20
2.11391
 30
0.0
 11
171.123
 21
3.22737
 31
0.0
  0
LINE
  8
0
 62
     250
 10
171.123
 20
3.22737
 30
0.0
 11
170.386
 21
4.45107
 31
0.0
  0
LINE
  8
0
 62
     250
 10
170.386
 20
4.45107
 30
0.0
 11
169.944
 21
5.78637
 31
0.0
  0
LINE
  8
0
 62
     250
 10
169.944
 20
5.78637
 30
0.0
 11
169.797
 21
7.23332
 31
0.0
  0
LINE
  8
0
 62
     250
 10
169.797
 20
7.23332
 30
0.0
 11
169.797
 21
17.9338
 31
0.0
  0
LINE
  8
0
 62
     250
 10
169.797
 20
17.9338
 30
0.0
 11
169.943
 21
19.3945
 31
0.0
  0
LINE
  8
0
 62
     250
 10
169.943
 20
19.3945
 30
0.0
 11
170.382
 21
20.7381
 31
0.0
  0
LINE
  8
0
 62
     250
 10
170.382
 20
20.7381
 30
0.0
 11
171.114
 21
21.9632
 31
0.0
  0
LINE
  8
0
 62
     250
 10
171.114
 20
21.9632
 30
0.0
 11
172.14
 21
23.0697
 31
0.0
  0
LINE
  8
0
 62
     250
 10
172.14
 20
23.0697
 30
0.0
 11
174.724
 21
24.6435
 31
0.0
  0
LINE
  8
0
 62
     250
 10
174.724
 20
24.6435
 30
0.0
 11
177.789
 21
25.1671
 31
0.0
  0
LINE
  8
0
 62
     250
 10
177.789
 20
25.1671
 30
0.0
 11
192.32
 21
25.1671
 31
0.0
  0
LINE
  8
0
 62
     250
 10
192.32
 20
25.1671
 30
0.0
 11
195.384
 21
24.6435
 31
0.0
  0
LINE
  8
0
 62
     250
 10
195.384
 20
24.6435
 30
0.0
 11
197.969
 21
23.0697
 31
0.0
  0
LINE
  8
0
 62
     250
 10
197.969
 20
23.0697
 30
0.0
 11
198.994
 21
21.9632
 31
0.0
  0
LINE
  8
0
 62
     250
 10
198.994
 20
21.9632
 30
0.0
 11
199.726
 21
20.7381
 31
0.0
  0
LINE
  8
0
 62
     250
 10
199.726
 20
20.7381
 30
0.0
 11
200.165
 21
19.3945
 31
0.0
  0
LINE
  8
0
 62
     250
 10
200.165
 20
19.3945
 30
0.0
 11
200.313
 21
17.9338
 31
0.0
  0
LINE
  8
0
 62
     250
 10
200.313
 20
17.9338
 30
0.0
 11
200.157
 21
16.429
 31
0.0
  0
LINE
  8
0
 62
     250
 10
200.157
 20
16.429
 30
0.0
 11
199.693
 21
15.0523
 31
0.0
  0
LINE
  8
0
 62
     250
 10
199.693
 20
15.0523
 30
0.0
 11
198.92
 21
13.8038
 31
0.0
  0
LINE
  8
0
 62
     250
 10
198.92
 20
13.8038
 30
0.0
 11
197.837
 21
12.6821
 31
0.0
  0
LINE
  8
0
 62
     250
 10
197.837
 20
12.6821
 30
0.0
 11
195.285
 21
11.1966
 31
0.0
  0
LINE
  8
0
 62
     250
 10
195.285
 20
11.1966
 30
0.0
 11
192.32
 21
10.7005
 31
0.0
  0
LINE
  8
0
 62
     250
 10
232.02
 20
17.7353
 30
0.0
 11
231.731
 21
19.1327
 31
0.0
  0
LINE
  8
0
 62
     250
 10
231.731
 20
19.1327
 30
0.0
 11
230.864
 21
20.2792
 31
0.0
  0
LINE
  8
0
 62
     250
 10
230.864
 20
20.2792
 30
0.0
 11
229.6
 21
21.0482
 31
0.0
  0
LINE
  8
0
 62
     250
 10
229.6
 20
21.0482
 30
0.0
 11
228.123
 21
21.3031
 31
0.0
  0
LINE
  8
0
 62
     250
 10
228.123
 20
21.3031
 30
0.0
 11
213.59
 21
21.3031
 31
0.0
  0
LINE
  8
0
 62
     250
 10
213.59
 20
21.3031
 30
0.0
 11
212.112
 21
21.0482
 31
0.0
  0
LINE
  8
0
 62
     250
 10
212.112
 20
21.0482
 30
0.0
 11
210.85
 21
20.2792
 31
0.0
  0
LINE
  8
0
 62
     250
 10
210.85
 20
20.2792
 30
0.0
 11
209.981
 21
19.1327
 31
0.0
  0
LINE
  8
0
 62
     250
 10
209.981
 20
19.1327
 30
0.0
 11
209.693
 21
17.7353
 31
0.0
  0
LINE
  8
0
 62
     250
 10
209.693
 20
17.7353
 30
0.0
 11
209.693
 21
7.43176
 31
0.0
  0
LINE
  8
0
 62
     250
 10
209.693
 20
7.43176
 30
0.0
 11
209.981
 21
6.06199
 31
0.0
  0
LINE
  8
0
 62
     250
 10
209.981
 20
6.06199
 30
0.0
 11
210.85
 21
4.92097
 31
0.0
  0
LINE
  8
0
 62
     250
 10
210.85
 20
4.92097
 30
0.0
 11
212.112
 21
4.15339
 31
0.0
  0
LINE
  8
0
 62
     250
 10
212.112
 20
4.15339
 30
0.0
 11
213.59
 21
3.8971
 31
0.0
  0
LINE
  8
0
 62
     250
 10
213.59
 20
3.8971
 30
0.0
 11
228.123
 21
3.8971
 31
0.0
  0
LINE
  8
0
 62
     250
 10
228.123
 20
3.8971
 30
0.0
 11
229.6
 21
4.15339
 31
0.0
  0
LINE
  8
0
 62
     250
 10
229.6
 20
4.15339
 30
0.0
 11
230.864
 21
4.92097
 31
0.0
  0
LINE
  8
0
 62
     250
 10
230.864
 20
4.92097
 30
0.0
 11
231.731
 21
6.06199
 31
0.0
  0
LINE
  8
0
 62
     250
 10
231.731
 20
6.06199
 30
0.0
 11
232.02
 21
7.43176
 31
0.0
  0
LINE
  8
0
 62
     250
 10
232.02
 20
7.43176
 30
0.0
 11
232.02
 21
17.7353
 31
0.0
  0
LINE
  8
0
 62
     250
 10
232.219
 20
1.05695
 30
0.0
 11
230.269
 21
0.264583
 31
0.0
  0
LINE
  8
0
 62
     250
 10
230.269
 20
0.264583
 30
0.0
 11
228.123
 21
-0
 31
0.0
  0
LINE
  8
0
 62
     250
 10
228.123
 20
-0
 30
0.0
 11
213.59
 21
-0
 31
0.0
  0
LINE
  8
0
 62
     250
 10
213.59
 20
-0
 30
0.0
 11
210.527
 21
0.54157
 31
0.0
  0
LINE
  8
0
 62
     250
 10
210.527
 20
0.54157
 30
0.0
 11
207.943
 21
2.16352
 31
0.0
  0
LINE
  8
0
 62
     250
 10
207.943
 20
2.16352
 30
0.0
 11
206.917
 21
3.30454
 31
0.0
  0
LINE
  8
0
 62
     250
 10
206.917
 20
3.30454
 30
0.0
 11
206.183
 21
4.56269
 31
0.0
  0
LINE
  8
0
 62
     250
 10
206.183
 20
4.56269
 30
0.0
 11
205.744
 21
5.93933
 31
0.0
  0
LINE
  8
0
 62
     250
 10
205.744
 20
5.93933
 30
0.0
 11
205.598
 21
7.43176
 31
0.0
  0
LINE
  8
0
 62
     250
 10
205.598
 20
7.43176
 30
0.0
 11
205.598
 21
17.7353
 31
0.0
  0
LINE
  8
0
 62
     250
 10
205.598
 20
17.7353
 30
0.0
 11
205.745
 21
19.2305
 31
0.0
  0
LINE
  8
0
 62
     250
 10
205.745
 20
19.2305
 30
0.0
 11
206.188
 21
20.6058
 31
0.0
  0
LINE
  8
0
 62
     250
 10
206.188
 20
20.6058
 30
0.0
 11
206.925
 21
21.864
 31
0.0
  0
LINE
  8
0
 62
     250
 10
206.925
 20
21.864
 30
0.0
 11
207.96
 21
23.0036
 31
0.0
  0
LINE
  8
0
 62
     250
 10
207.96
 20
23.0036
 30
0.0
 11
209.196
 21
23.9517
 31
0.0
  0
LINE
  8
0
 62
     250
 10
209.196
 20
23.9517
 30
0.0
 11
210.548
 21
24.6269
 31
0.0
  0
LINE
  8
0
 62
     250
 10
210.548
 20
24.6269
 30
0.0
 11
212.011
 21
25.0321
 31
0.0
  0
LINE
  8
0
 62
     250
 10
212.011
 20
25.0321
 30
0.0
 11
213.59
 21
25.1671
 31
0.0
  0
LINE
  8
0
 62
     250
 10
213.59
 20
25.1671
 30
0.0
 11
228.123
 21
25.1671
 31
0.0
  0
LINE
  8
0
 62
     250
 10
228.123
 20
25.1671
 30
0.0
 11
230.17
 21
24.937
 31
0.0
  0
LINE
  8
0
 62
     250
 10
230.17
 20
24.937
 30
0.0
 11
232.02
 21
24.2425
 31
0.0
  0
LINE
  8
0
 62
     250
 10
232.02
 20
24.2425
 30
0.0
 11
232.02
 21
36.4628
 31
0.0
  0
LINE
  8
0
 62
     250
 10
232.02
 20
36.4628
 30
0.0
 11
232.147
 21
37.3158
 31
0.0
  0
LINE
  8
0
 62
     250
 10
232.147
 20
37.3158
 30
0.0
 11
232.532
 21
37.925
 31
0.0
  0
LINE
  8
0
 62
     250
 10
232.532
 20
37.925
 30
0.0
 11
233.171
 21
38.2901
 31
0.0
  0
LINE
  8
0
 62
     250
 10
233.171
 20
38.2901
 30
0.0
 11
234.068
 21
38.4115
 31
0.0
  0
LINE
  8
0
 62
     250
 10
234.068
 20
38.4115
 30
0.0
 11
234.962
 21
38.2901
 31
0.0
  0
LINE
  8
0
 62
     250
 10
234.962
 20
38.2901
 30
0.0
 11
235.603
 21
37.925
 31
0.0
  0
LINE
  8
0
 62
     250
 10
235.603
 20
37.925
 30
0.0
 11
235.988
 21
37.3158
 31
0.0
  0
LINE
  8
0
 62
     250
 10
235.988
 20
37.3158
 30
0.0
 11
236.116
 21
36.4628
 31
0.0
  0
LINE
  8
0
 62
     250
 10
236.116
 20
36.4628
 30
0.0
 11
236.116
 21
1.94855
 31
0.0
  0
LINE
  8
0
 62
     250
 10
236.116
 20
1.94855
 30
0.0
 11
235.988
 21
1.09692
 31
0.0
  0
LINE
  8
0
 62
     250
 10
235.988
 20
1.09692
 30
0.0
 11
235.603
 21
0.487825
 31
0.0
  0
LINE
  8
0
 62
     250
 10
235.603
 20
0.487825
 30
0.0
 11
234.962
 21
0.122645
 31
0.0
  0
LINE
  8
0
 62
     250
 10
234.962
 20
0.122645
 30
0.0
 11
234.068
 21
-0
 31
0.0
  0
LINE
  8
0
 62
     250
 10
234.068
 20
-0
 30
0.0
 11
232.912
 21
0.264583
 31
0.0
  0
LINE
  8
0
 62
     250
 10
232.912
 20
0.264583
 30
0.0
 11
232.219
 21
1.05695
 31
0.0
  0
LINE
  8
0
 62
     250
 10
243.745
 20
-0
 30
0.0
 11
242.849
 21
0.119889
 31
0.0
  0
LINE
  8
0
 62
     250
 10
242.849
 20
0.119889
 30
0.0
 11
242.208
 21
0.479559
 31
0.0
  0
LINE
  8
0
 62
     250
 10
242.208
 20
0.479559
 30
0.0
 11
241.824
 21
1.07763
 31
0.0
  0
LINE
  8
0
 62
     250
 10
241.824
 20
1.07763
 30
0.0
 11
241.697
 21
1.91547
 31
0.0
  0
LINE
  8
0
 62
     250
 10
241.697
 20
1.91547
 30
0.0
 11
241.697
 21
23.2517
 31
0.0
  0
LINE
  8
0
 62
     250
 10
241.697
 20
23.2517
 30
0.0
 11
241.824
 21
24.0909
 31
0.0
  0
LINE
  8
0
 62
     250
 10
241.824
 20
24.0909
 30
0.0
 11
242.208
 21
24.6889
 31
0.0
  0
LINE
  8
0
 62
     250
 10
242.208
 20
24.6889
 30
0.0
 11
242.849
 21
25.0486
 31
0.0
  0
LINE
  8
0
 62
     250
 10
242.849
 20
25.0486
 30
0.0
 11
243.745
 21
25.1671
 31
0.0
  0
LINE
  8
0
 62
     250
 10
243.745
 20
25.1671
 30
0.0
 11
244.64
 21
25.0486
 31
0.0
  0
LINE
  8
0
 62
     250
 10
244.64
 20
25.0486
 30
0.0
 11
245.28
 21
24.6889
 31
0.0
  0
LINE
  8
0
 62
     250
 10
245.28
 20
24.6889
 30
0.0
 11
245.664
 21
24.0909
 31
0.0
  0
LINE
  8
0
 62
     250
 10
245.664
 20
24.0909
 30
0.0
 11
245.792
 21
23.2517
 31
0.0
  0
LINE
  8
0
 62
     250
 10
245.792
 20
23.2517
 30
0.0
 11
245.792
 21
1.91547
 31
0.0
  0
LINE
  8
0
 62
     250
 10
245.792
 20
1.91547
 30
0.0
 11
245.664
 21
1.07763
 31
0.0
  0
LINE
  8
0
 62
     250
 10
245.664
 20
1.07763
 30
0.0
 11
245.28
 21
0.479559
 31
0.0
  0
LINE
  8
0
 62
     250
 10
245.28
 20
0.479559
 30
0.0
 11
244.64
 21
0.119889
 31
0.0
  0
LINE
  8
0
 62
     250
 10
244.64
 20
0.119889
 30
0.0
 11
243.745
 21
-0
 31
0.0
  0
LINE
  8
0
 62
     250
 10
243.745
 20
28.5034
 30
0.0
 11
242.573
 21
28.6604
 31
0.0
  0
LINE
  8
0
 62
     250
 10
242.573
 20
28.6604
 30
0.0
 11
241.738
 21
29.1317
 31
0.0
  0
LINE
  8
0
 62
     250
 10
241.738
 20
29.1317
 30
0.0
 11
241.237
 21
29.9158
 31
0.0
  0
LINE
  8
0
 62
     250
 10
241.237
 20
29.9158
 30
0.0
 11
241.07
 21
31.0128
 31
0.0
  0
LINE
  8
0
 62
     250
 10
241.07
 20
31.0128
 30
0.0
 11
241.237
 21
32.1124
 31
0.0
  0
LINE
  8
0
 62
     250
 10
241.237
 20
32.1124
 30
0.0
 11
241.738
 21
32.8965
 31
0.0
  0
LINE
  8
0
 62
     250
 10
241.738
 20
32.8965
 30
0.0
 11
242.573
 21
33.3678
 31
0.0
  0
LINE
  8
0
 62
     250
 10
242.573
 20
33.3678
 30
0.0
 11
243.745
 21
33.5235
 31
0.0
  0
LINE
  8
0
 62
     250
 10
243.745
 20
33.5235
 30
0.0
 11
244.915
 21
33.3678
 31
0.0
  0
LINE
  8
0
 62
     250
 10
244.915
 20
33.3678
 30
0.0
 11
245.751
 21
32.8965
 31
0.0
  0
LINE
  8
0
 62
     250
 10
245.751
 20
32.8965
 30
0.0
 11
246.253
 21
32.1124
 31
0.0
  0
LINE
  8
0
 62
     250
 10
246.253
 20
32.1124
 30
0.0
 11
246.421
 21
31.0128
 31
0.0
  0
LINE
  8
0
 62
     250
 10
246.421
 20
31.0128
 30
0.0
 11
246.253
 21
29.9158
 31
0.0
  0
LINE
  8
0
 62
     250
 10
246.253
 20
29.9158
 30
0.0
 11
245.751
 21
29.1317
 31
0.0
  0
LINE
  8
0
 62
     250
 10
245.751
 20
29.1317
 30
0.0
 11
244.915
 21
28.6604
 31
0.0
  0
LINE
  8
0
 62
     250
 10
244.915
 20
28.6604
 30
0.0
 11
243.745
 21
28.5034
 31
0.0
  0
LINE
  8
0
 62
     250
 10
278.127
 20
10.7349
 30
0.0
 11
259.697
 21
10.7349
 31
0.0
  0
LINE
  8
0
 62
     250
 10
259.697
 20
10.7349
 30
0.0
 11
258.218
 21
10.4786
 31
0.0
  0
LINE
  8
0
 62
     250
 10
258.218
 20
10.4786
 30
0.0
 11
256.956
 21
9.70964
 31
0.0
  0
LINE
  8
0
 62
     250
 10
256.956
 20
9.70964
 30
0.0
 11
256.088
 21
8.57966
 31
0.0
  0
LINE
  8
0
 62
     250
 10
256.088
 20
8.57966
 30
0.0
 11
255.8
 21
7.23332
 31
0.0
  0
LINE
  8
0
 62
     250
 10
255.8
 20
7.23332
 30
0.0
 11
256.088
 21
5.89661
 31
0.0
  0
LINE
  8
0
 62
     250
 10
256.088
 20
5.89661
 30
0.0
 11
256.956
 21
4.78868
 31
0.0
  0
LINE
  8
0
 62
     250
 10
256.956
 20
4.78868
 30
0.0
 11
258.218
 21
4.04594
 31
0.0
  0
LINE
  8
0
 62
     250
 10
258.218
 20
4.04594
 30
0.0
 11
259.697
 21
3.79786
 31
0.0
  0
LINE
  8
0
 62
     250
 10
259.697
 20
3.79786
 30
0.0
 11
274.23
 21
3.79786
 31
0.0
  0
LINE
  8
0
 62
     250
 10
274.23
 20
3.79786
 30
0.0
 11
275.707
 21
4.04594
 31
0.0
  0
LINE
  8
0
 62
     250
 10
275.707
 20
4.04594
 30
0.0
 11
276.97
 21
4.78868
 31
0.0
  0
LINE
  8
0
 62
     250
 10
276.97
 20
4.78868
 30
0.0
 11
277.837
 21
5.89661
 31
0.0
  0
LINE
  8
0
 62
     250
 10
277.837
 20
5.89661
 30
0.0
 11
278.127
 21
7.23332
 31
0.0
  0
LINE
  8
0
 62
     250
 10
278.127
 20
7.23332
 30
0.0
 11
278.127
 21
10.7349
 31
0.0
  0
LINE
  8
0
 62
     250
 10
278.325
 20
1.02388
 30
0.0
 11
276.377
 21
0.256315
 31
0.0
  0
LINE
  8
0
 62
     250
 10
276.377
 20
0.256315
 30
0.0
 11
274.23
 21
-0
 31
0.0
  0
LINE
  8
0
 62
     250
 10
274.23
 20
-0
 30
0.0
 11
259.697
 21
-0
 31
0.0
  0
LINE
  8
0
 62
     250
 10
259.697
 20
-0
 30
0.0
 11
258.119
 21
0.132292
 31
0.0
  0
LINE
  8
0
 62
     250
 10
258.119
 20
0.132292
 30
0.0
 11
256.654
 21
0.529167
 31
0.0
  0
LINE
  8
0
 62
     250
 10
256.654
 20
0.529167
 30
0.0
 11
255.302
 21
1.18925
 31
0.0
  0
LINE
  8
0
 62
     250
 10
255.302
 20
1.18925
 30
0.0
 11
254.066
 21
2.11391
 31
0.0
  0
LINE
  8
0
 62
     250
 10
254.066
 20
2.11391
 30
0.0
 11
253.033
 21
3.22737
 31
0.0
  0
LINE
  8
0
 62
     250
 10
253.033
 20
3.22737
 30
0.0
 11
252.294
 21
4.45107
 31
0.0
  0
LINE
  8
0
 62
     250
 10
252.294
 20
4.45107
 30
0.0
 11
251.852
 21
5.78637
 31
0.0
  0
LINE
  8
0
 62
     250
 10
251.852
 20
5.78637
 30
0.0
 11
251.704
 21
7.23332
 31
0.0
  0
LINE
  8
0
 62
     250
 10
251.704
 20
7.23332
 30
0.0
 11
251.85
 21
8.69541
 31
0.0
  0
LINE
  8
0
 62
     250
 10
251.85
 20
8.69541
 30
0.0
 11
252.29
 21
10.0417
 31
0.0
  0
LINE
  8
0
 62
     250
 10
252.29
 20
10.0417
 30
0.0
 11
253.023
 21
11.271
 31
0.0
  0
LINE
  8
0
 62
     250
 10
253.023
 20
11.271
 30
0.0
 11
254.05
 21
12.3858
 31
0.0
  0
LINE
  8
0
 62
     250
 10
254.05
 20
12.3858
 30
0.0
 11
256.633
 21
13.9719
 31
0.0
  0
LINE
  8
0
 62
     250
 10
256.633
 20
13.9719
 30
0.0
 11
259.697
 21
14.4997
 31
0.0
  0
LINE
  8
0
 62
     250
 10
259.697
 20
14.4997
 30
0.0
 11
278.127
 21
14.4997
 31
0.0
  0
LINE
  8
0
 62
     250
 10
278.127
 20
14.4997
 30
0.0
 11
278.127
 21
17.9338
 31
0.0
  0
LINE
  8
0
 62
     250
 10
278.127
 20
17.9338
 30
0.0
 11
277.837
 21
19.2719
 31
0.0
  0
LINE
  8
0
 62
     250
 10
277.837
 20
19.2719
 30
0.0
 11
276.97
 21
20.3784
 31
0.0
  0
LINE
  8
0
 62
     250
 10
276.97
 20
20.3784
 30
0.0
 11
275.707
 21
21.1226
 31
0.0
  0
LINE
  8
0
 62
     250
 10
275.707
 20
21.1226
 30
0.0
 11
274.23
 21
21.3692
 31
0.0
  0
LINE
  8
0
 62
     250
 10
274.23
 20
21.3692
 30
0.0
 11
259.697
 21
21.3692
 31
0.0
  0
LINE
  8
0
 62
     250
 10
259.697
 20
21.3692
 30
0.0
 11
258.801
 21
21.4891
 31
0.0
  0
LINE
  8
0
 62
     250
 10
258.801
 20
21.4891
 30
0.0
 11
258.16
 21
21.8488
 31
0.0
  0
LINE
  8
0
 62
     250
 10
258.16
 20
21.8488
 30
0.0
 11
257.776
 21
22.4469
 31
0.0
  0
LINE
  8
0
 62
     250
 10
257.776
 20
22.4469
 30
0.0
 11
257.649
 21
23.2847
 31
0.0
  0
LINE
  8
0
 62
     250
 10
257.649
 20
23.2847
 30
0.0
 11
257.776
 21
24.1088
 31
0.0
  0
LINE
  8
0
 62
     250
 10
257.776
 20
24.1088
 30
0.0
 11
258.16
 21
24.6972
 31
0.0
  0
LINE
  8
0
 62
     250
 10
258.16
 20
24.6972
 30
0.0
 11
258.801
 21
25.05
 31
0.0
  0
LINE
  8
0
 62
     250
 10
258.801
 20
25.05
 30
0.0
 11
259.697
 21
25.1671
 31
0.0
  0
LINE
  8
0
 62
     250
 10
259.697
 20
25.1671
 30
0.0
 11
274.23
 21
25.1671
 31
0.0
  0
LINE
  8
0
 62
     250
 10
274.23
 20
25.1671
 30
0.0
 11
277.293
 21
24.6435
 31
0.0
  0
LINE
  8
0
 62
     250
 10
277.293
 20
24.6435
 30
0.0
 11
279.877
 21
23.0697
 31
0.0
  0
LINE
  8
0
 62
     250
 10
279.877
 20
23.0697
 30
0.0
 11
280.902
 21
21.9632
 31
0.0
  0
LINE
  8
0
 62
     250
 10
280.902
 20
21.9632
 30
0.0
 11
281.635
 21
20.7381
 31
0.0
  0
LINE
  8
0
 62
     250
 10
281.635
 20
20.7381
 30
0.0
 11
282.075
 21
19.3945
 31
0.0
  0
LINE
  8
0
 62
     250
 10
282.075
 20
19.3945
 30
0.0
 11
282.222
 21
17.9338
 31
0.0
  0
LINE
  8
0
 62
     250
 10
282.222
 20
17.9338
 30
0.0
 11
282.222
 21
1.8824
 31
0.0
  0
LINE
  8
0
 62
     250
 10
282.222
 20
1.8824
 30
0.0
 11
282.094
 21
1.05971
 31
0.0
  0
LINE
  8
0
 62
     250
 10
282.094
 20
1.05971
 30
0.0
 11
281.71
 21
0.47129
 31
0.0
  0
LINE
  8
0
 62
     250
 10
281.71
 20
0.47129
 30
0.0
 11
281.07
 21
0.118511
 31
0.0
  0
LINE
  8
0
 62
     250
 10
281.07
 20
0.118511
 30
0.0
 11
280.174
 21
-0
 31
0.0
  0
LINE
  8
0
 62
     250
 10
280.174
 20
-0
 30
0.0
 11
279.018
 21
0.256315
 31
0.0
  0
LINE
  8
0
 62
     250
 10
279.018
 20
0.256315
 30
0.0
 11
278.325
 21
1.02388
 31
0.0
  0
ENDSEC
  0
EOF
